<svg width="25" height="26" viewBox="0 0 25 26" fill="none" xmlns="http://www.w3.org/2000/svg">
<path fill-rule="evenodd" clip-rule="evenodd" d="M7.63519 0C8.18748 0 8.63519 0.447715 8.63519 1V2.40049H16.2357V1C16.2357 0.447715 16.6834 0 17.2357 0C17.788 0 18.2357 0.447715 18.2357 1V2.40049H20.8363C22.7141 2.40049 24.2363 3.9227 24.2363 5.80044V22.6001C24.2363 24.4778 22.7141 26 20.8363 26H4.03667C2.15893 26 0.636719 24.4778 0.636719 22.6001V5.80044C0.636719 3.9227 2.15893 2.40049 4.03667 2.40049H6.63519V1C6.63519 0.447715 7.08291 0 7.63519 0ZM6.63519 4.40049H4.03667C3.2635 4.40049 2.63672 5.02727 2.63672 5.80044V9.60014H22.2363V5.80044C22.2363 5.02727 21.6095 4.40049 20.8363 4.40049H18.2357V5.7999C18.2357 6.35219 17.788 6.7999 17.2357 6.7999C16.6834 6.7999 16.2357 6.35219 16.2357 5.7999V4.40049H8.63519V5.7999C8.63519 6.35219 8.18748 6.7999 7.63519 6.7999C7.08291 6.7999 6.63519 6.35219 6.63519 5.7999V4.40049ZM22.2363 11.6001H2.63672V22.6001C2.63672 23.3733 3.2635 24 4.03667 24H20.8363C21.6095 24 22.2363 23.3733 22.2363 22.6001V11.6001Z" fill="#70C174"/>
</svg>
