<svg width="22" height="26" viewBox="0 0 22 26" fill="none" xmlns="http://www.w3.org/2000/svg">
<path fill-rule="evenodd" clip-rule="evenodd" d="M10.8182 2C8.47945 2 6.23652 2.92906 4.58279 4.58279C2.92906 6.23652 2 8.47945 2 10.8182C2 14.2344 4.22028 17.5361 6.63504 20.085C7.82198 21.3379 9.0123 22.3632 9.90702 23.0757C10.2663 23.3618 10.5766 23.5964 10.8182 23.7739C11.0598 23.5964 11.3701 23.3618 11.7293 23.0757C12.6241 22.3632 13.8144 21.3379 15.0013 20.085C17.4161 17.5361 19.6364 14.2344 19.6364 10.8182C19.6364 8.47945 18.7073 6.23652 17.0536 4.58279C15.3998 2.92906 13.1569 2 10.8182 2ZM10.8182 25C10.2635 25.8321 10.2632 25.8319 10.2629 25.8317L10.2599 25.8297L10.2528 25.8249L10.2282 25.8082C10.2071 25.7939 10.1771 25.7734 10.1385 25.7467C10.0615 25.6934 9.95067 25.6155 9.81082 25.5145C9.5312 25.3126 9.13505 25.0176 8.66116 24.6402C7.71497 23.8868 6.45075 22.7985 5.18314 21.4605C2.68881 18.8276 0 15.0383 0 10.8182C5.96046e-08 7.94902 1.13977 5.19737 3.16857 3.16857C5.19737 1.13977 7.94902 0 10.8182 0C13.6873 0 16.439 1.13977 18.4678 3.16857C20.4966 5.19737 21.6364 7.94902 21.6364 10.8182C21.6364 15.0383 18.9476 18.8276 16.4532 21.4605C15.1856 22.7985 13.9214 23.8868 12.9752 24.6402C12.5013 25.0176 12.1052 25.3126 11.8255 25.5145C11.6857 25.6155 11.5748 25.6934 11.4978 25.7467C11.4593 25.7734 11.4292 25.7939 11.4082 25.8082L11.3835 25.8249L11.3764 25.8297L11.3742 25.8312C11.3739 25.8314 11.3729 25.8321 10.8182 25ZM10.8182 25L11.3729 25.8321C11.037 26.056 10.5988 26.0556 10.2629 25.8317L10.8182 25ZM10.822 8.54639C9.56685 8.54639 8.54932 9.56392 8.54932 10.8191C8.54932 12.0743 9.56685 13.0918 10.822 13.0918C12.0772 13.0918 13.0948 12.0743 13.0948 10.8191C13.0948 9.56392 12.0772 8.54639 10.822 8.54639ZM6.54932 10.8191C6.54932 8.45935 8.46228 6.54639 10.822 6.54639C13.1818 6.54639 15.0948 8.45935 15.0948 10.8191C15.0948 13.1789 13.1818 15.0918 10.822 15.0918C8.46228 15.0918 6.54932 13.1789 6.54932 10.8191Z" fill="#70C174"/>
</svg>
