<svg width="143" height="29" viewBox="0 0 143 29" fill="none" xmlns="http://www.w3.org/2000/svg">
<path opacity="0.6" fill-rule="evenodd" clip-rule="evenodd" d="M25.0772 19.5842C25.2667 19.5339 25.4527 19.469 25.6335 19.3898C26.2276 19.1296 26.7464 18.7236 27.1419 18.2094C27.5373 17.6951 27.7967 17.0893 27.8958 16.4481C27.995 15.8069 27.9308 15.1511 27.7091 14.5413C27.4874 13.9316 27.1155 13.3877 26.6278 12.96C26.1401 12.5323 25.5524 12.2348 24.9192 12.0949C24.2859 11.955 23.6276 11.9773 23.0052 12.1597C22.3829 12.3421 21.8166 12.6788 21.359 13.1385H21.3558C20.9581 13.5388 20.6535 14.022 20.4638 14.5536C20.4231 14.6675 20.3879 14.7831 20.3583 14.8998C20.2525 15.3167 20.2173 15.7493 20.2549 16.1793C20.2553 16.1841 20.2557 16.1888 20.2562 16.1936C20.2568 16.2004 20.2574 16.2072 20.2581 16.2139L20.2392 16.195C20.2397 16.2019 20.2403 16.2087 20.2409 16.2156C20.2412 16.2204 20.2416 16.2252 20.242 16.23C20.2753 16.665 20.246 17.1014 20.1559 17.5261C20.1114 17.7359 20.052 17.9428 19.978 18.1453C19.7502 18.7686 19.3891 19.3346 18.92 19.8039C18.451 20.2733 17.8852 20.6345 17.2622 20.8624C17.0599 20.9364 16.8531 20.9958 16.6436 21.0404C16.219 21.1306 15.7827 21.1599 15.3479 21.1266C15.343 21.1262 15.3382 21.1258 15.3334 21.1254C15.3266 21.1249 15.3197 21.1243 15.3129 21.1237L15.3318 21.1426C15.325 21.142 15.3182 21.1414 15.3115 21.1408C15.3067 21.1404 15.3019 21.14 15.2971 21.1396C14.8664 21.1034 14.4351 21.14 14.0208 21.2456C13.6855 21.3311 13.3614 21.4618 13.0576 21.6356C12.3683 22.0301 11.8173 22.6277 11.4799 23.3469C11.1424 24.0661 11.0349 24.872 11.172 25.6545C11.3091 26.4371 11.6841 27.1584 12.2459 27.7199C12.8076 28.2815 13.5289 28.656 14.3112 28.7924C15.0935 28.9289 15.8989 28.8206 16.6174 28.4823C17.336 28.1441 17.9328 27.5923 18.3264 26.9023C18.5041 26.5908 18.6365 26.2579 18.7215 25.9137C18.8218 25.5072 18.856 25.0848 18.8204 24.663C18.8199 24.6577 18.8195 24.6523 18.819 24.647C18.8184 24.6402 18.8178 24.6333 18.8171 24.6265L18.8371 24.6454C18.8365 24.6386 18.8359 24.6317 18.8354 24.6248C18.8349 24.6194 18.8345 24.614 18.8341 24.6086C18.8017 24.1834 18.8291 23.7568 18.9147 23.3412C18.9598 23.1222 19.0211 22.9063 19.0982 22.6952C19.3261 22.0719 19.6871 21.5058 20.1562 21.0365C20.6253 20.5672 21.191 20.206 21.8141 19.978C22.0072 19.9074 22.2043 19.8501 22.4041 19.8063C22.8376 19.7112 23.2837 19.6798 23.7282 19.7139C23.7327 19.7142 23.7373 19.7146 23.7419 19.715C23.749 19.7155 23.7562 19.7161 23.7633 19.7167L23.7434 19.6978C23.7505 19.6985 23.7576 19.6991 23.7648 19.6997C23.7693 19.7001 23.7739 19.7005 23.7784 19.7008C24.2162 19.7362 24.6553 19.6963 25.0772 19.5842ZM21.5607 19.0068L20.9669 18.444L21.0841 18.4545L20.9693 18.3396C20.9526 18.3895 20.9353 18.4391 20.9172 18.4886C20.7765 18.8736 20.594 19.2408 20.3738 19.5838C20.7172 19.363 21.0848 19.18 21.4705 19.0389C21.5005 19.0279 21.5305 19.0172 21.5607 19.0068ZM18.7024 21.2567C18.359 21.4775 17.9914 21.6605 17.6058 21.8015C17.5563 21.8197 17.5066 21.837 17.4567 21.8537L17.998 22.3952L17.9078 22.3868L18.0883 22.5578C18.1105 22.4888 18.1341 22.4201 18.159 22.3519C18.2998 21.9668 18.4822 21.5997 18.7024 21.2567ZM17.5996 22.3581L15.2391 22.1383C14.6533 22.0838 14.065 22.2113 13.5543 22.5036C13.0435 22.7958 12.6353 23.2386 12.3852 23.7716C12.1351 24.3047 12.0554 24.902 12.157 25.482C12.2586 26.0621 12.5365 26.5966 12.9528 27.0127C13.3691 27.4288 13.9035 27.7062 14.483 27.8073C15.0625 27.9084 15.6592 27.8282 16.1915 27.5776C16.7239 27.327 17.1661 26.9181 17.4578 26.4068C17.7496 25.8954 17.8766 25.3064 17.8215 24.7201L17.5996 22.3581ZM21.4826 18.4904L23.833 18.7019C24.3112 18.7449 24.7925 18.6664 25.2323 18.4738C25.6721 18.2812 26.0563 17.9805 26.3492 17.5997C26.642 17.2189 26.8341 16.7702 26.9076 16.2953C26.981 15.8204 26.9334 15.3346 26.7693 14.883C26.6051 14.4313 26.3297 14.0286 25.9685 13.7119C25.6074 13.3952 25.1723 13.1749 24.7034 13.0713C24.2346 12.9678 23.7473 12.9843 23.2865 13.1193C22.8258 13.2544 22.4065 13.5036 22.0676 13.844L21.9896 13.9224C21.7324 14.2021 21.5336 14.531 21.4056 14.8898C21.2652 15.2829 21.2133 15.7022 21.2534 16.1178L21.4826 18.4904ZM8.76514 22.2911C8.81024 22.0721 8.87149 21.8562 8.94864 21.6452C9.17647 21.0218 9.53753 20.4558 10.0066 19.9865C10.4757 19.5172 11.0415 19.1559 11.6645 18.928C11.8576 18.8573 12.0547 18.8 12.2546 18.7562C12.688 18.6612 13.1341 18.6298 13.5786 18.6639C13.5831 18.6642 13.5876 18.6645 13.5921 18.6649C13.5993 18.6655 13.6065 18.6661 13.6137 18.6667L13.5938 18.6478C13.6009 18.6485 13.608 18.6492 13.6152 18.6499C13.6196 18.6503 13.6241 18.6507 13.6285 18.6511C14.0685 18.6914 14.5114 18.6548 14.9375 18.5436C15.0445 18.5157 15.1504 18.4831 15.2549 18.4458C15.7868 18.2562 16.2699 17.9507 16.6694 17.5513C17.0688 17.152 17.3745 16.6689 17.5645 16.1368C17.608 16.0149 17.6452 15.8911 17.676 15.766C17.7767 15.3567 17.8091 14.9328 17.771 14.5114C17.7706 14.5061 17.7701 14.5008 17.7696 14.4955C17.7689 14.4887 17.7683 14.4819 17.7676 14.4751L17.7875 14.494C17.787 14.4871 17.7864 14.4802 17.7858 14.4733C17.7854 14.4679 17.785 14.4625 17.7846 14.4572C17.7522 14.032 17.7796 13.6054 17.8652 13.1899C17.9103 12.9708 17.9715 12.7549 18.0487 12.5438C18.2765 11.9204 18.6376 11.3544 19.1067 10.8851C19.5757 10.4158 20.1415 10.0545 20.7645 9.82658C20.9576 9.75594 21.1547 9.69862 21.3545 9.65482C21.788 9.55979 22.2341 9.52837 22.6786 9.56244C22.6832 9.56279 22.6877 9.56315 22.6923 9.56351C22.6994 9.56408 22.7066 9.56467 22.7138 9.56528L22.6939 9.54638C22.701 9.54705 22.7081 9.5477 22.7152 9.54833C22.7198 9.54873 22.7243 9.54912 22.7288 9.5495C23.169 9.58683 23.6098 9.5481 24.0326 9.43734C24.3582 9.35203 24.6731 9.224 24.9688 9.05509C25.6585 8.66106 26.21 8.06375 26.5479 7.34464C26.8859 6.62553 26.9939 5.81962 26.8572 5.03684C26.7205 4.25406 26.3458 3.53251 25.7842 2.97062C25.2226 2.40873 24.5014 2.03385 23.719 1.8971C22.9366 1.76036 22.1311 1.86842 21.4123 2.20654C20.6936 2.54466 20.0966 3.09638 19.7027 3.78644C19.5339 4.08226 19.4059 4.39733 19.3207 4.72311C19.21 5.14611 19.1713 5.58717 19.2086 6.02759C19.209 6.03209 19.2093 6.03659 19.2097 6.04109C19.2104 6.04822 19.211 6.05535 19.2117 6.06248L19.1928 6.04253C19.1934 6.04971 19.194 6.0569 19.1946 6.06408C19.1949 6.06861 19.1953 6.07315 19.1956 6.07768C19.2298 6.52253 19.1985 6.96894 19.1036 7.40277C19.0598 7.60263 19.0026 7.79982 18.932 7.99296C18.7042 8.61637 18.3432 9.18252 17.8741 9.65186C17.405 10.1212 16.8391 10.4824 16.216 10.7103C16.005 10.7875 15.7892 10.8487 15.5703 10.8938C15.1548 10.9794 14.7284 11.0067 14.3033 10.9742C14.298 10.9738 14.2926 10.9734 14.2873 10.9729C14.2803 10.9724 14.2734 10.9718 14.2665 10.9712L14.2854 10.9912C14.2786 10.9905 14.2718 10.9898 14.265 10.9892C14.2597 10.9887 14.2544 10.9882 14.2491 10.9877C13.8277 10.9493 13.4037 10.9814 12.9944 11.082C12.8695 11.1127 12.746 11.1498 12.6243 11.1932C12.0924 11.3828 11.6093 11.6883 11.2098 12.0876C10.8104 12.4869 10.5047 12.9701 10.3147 13.5021C10.2742 13.6157 10.2391 13.7309 10.2096 13.8474C10.1037 14.2651 10.0692 14.6986 10.1083 15.1294C10.1088 15.1341 10.1092 15.1388 10.1096 15.1436C10.1103 15.1503 10.1109 15.1571 10.1116 15.1639L10.0927 15.145C10.0933 15.1519 10.0939 15.1587 10.0944 15.1656C10.0948 15.1704 10.0952 15.1752 10.0955 15.18C10.1287 15.6149 10.0994 16.0513 10.0092 16.4759C9.96461 16.6857 9.90521 16.8926 9.83118 17.095C9.60328 17.7182 9.24222 18.2842 8.77319 18.7535C8.30416 19.2228 7.73844 19.584 7.11551 19.812C6.9132 19.8861 6.70643 19.9455 6.49679 19.9901C6.07235 20.0803 5.63617 20.1097 5.20144 20.0765C5.19661 20.0761 5.19178 20.0757 5.18696 20.0754C5.18012 20.0748 5.17329 20.0743 5.16645 20.0737L5.18534 20.0926C5.17857 20.0919 5.17179 20.0913 5.16502 20.0907C5.16023 20.0903 5.15544 20.0899 5.15065 20.0895C4.7197 20.0529 4.28813 20.0892 3.87348 20.1947C3.53833 20.2799 3.21422 20.4103 2.91043 20.5839C2.2207 20.9779 1.66925 21.5752 1.3313 22.2943C0.993348 23.0134 0.885342 23.8193 1.02202 24.6021C1.15869 25.3849 1.53339 26.1064 2.09501 26.6683C2.65662 27.2302 3.37781 27.6051 4.16021 27.7419C4.94261 27.8786 5.74812 27.7705 6.46688 27.4324C7.18563 27.0943 7.78264 26.5426 8.17648 25.8525C8.3543 25.5409 8.4868 25.208 8.57181 24.8637C8.67217 24.4572 8.70634 24.0348 8.67078 23.613C8.67033 23.6076 8.66986 23.6023 8.66939 23.5969C8.66879 23.5901 8.66817 23.5833 8.66753 23.5765L8.68747 23.5954C8.68689 23.5885 8.68632 23.5816 8.68578 23.5748C8.68534 23.5694 8.68492 23.564 8.68451 23.5586C8.6521 23.1334 8.67953 22.7067 8.76514 22.2911ZM7.93872 21.5077C7.96092 21.4387 7.98448 21.3701 8.00941 21.3019C8.14984 20.9177 8.3318 20.5513 8.5513 20.209C8.20925 20.4285 7.84317 20.6105 7.45924 20.7511C7.40964 20.7692 7.35981 20.7867 7.30979 20.8034L7.8539 21.3477L7.76077 21.339L7.93872 21.5077ZM7.45037 21.3098L5.0918 21.0882C4.50601 21.0332 3.91748 21.1602 3.40647 21.4522C2.89545 21.7441 2.4868 22.1867 2.23634 22.7197C1.98587 23.2526 1.90581 23.8499 2.00711 24.4301C2.10841 25.0103 2.38613 25.545 2.80229 25.9614C3.21844 26.3778 3.75277 26.6555 4.33237 26.7568C4.91197 26.8581 5.5087 26.778 6.0412 26.5275C6.57371 26.277 7.0161 25.8683 7.30797 25.3568C7.59984 24.8454 7.72695 24.2563 7.67191 23.6699L7.45037 21.3098ZM10.2285 18.531C10.5706 18.3114 10.9368 18.1294 11.3209 17.9889C11.3509 17.9779 11.3809 17.9672 11.4111 17.9567L10.7942 17.372C10.7864 17.3942 10.7784 17.4163 10.7704 17.4384C10.6299 17.8225 10.448 18.1888 10.2285 18.531ZM10.7981 17.3609L10.9044 17.3716L10.8224 17.2895C10.8145 17.3134 10.8064 17.3371 10.7981 17.3609ZM11.3417 17.4157L11.1067 15.0644C11.0652 14.6497 11.1164 14.2309 11.2565 13.8383C11.3967 13.4458 11.6222 13.0894 11.9169 12.7948C12.2115 12.5003 12.5678 12.2749 12.9601 12.1351C13.3524 11.9952 13.7708 11.9444 14.1851 11.9861L16.5375 12.2233L16.7726 14.5745C16.814 14.9893 16.7628 15.4081 16.6227 15.8006C16.4825 16.1932 16.257 16.5496 15.9624 16.8441C15.6677 17.1387 15.3114 17.364 14.9191 17.5039C14.5268 17.6437 14.1084 17.6946 13.6941 17.6528L11.3417 17.4157ZM16.6873 12.0736L17.0387 12.4066C17.0609 12.3375 17.0845 12.2688 17.1095 12.2004C17.2499 11.8164 17.4317 11.4502 17.6511 11.108C17.3092 11.3273 16.9432 11.5091 16.5595 11.6495C16.491 11.6745 16.4222 11.6982 16.3529 11.7204L16.6873 12.0736ZM19.3296 9.42894C19.6714 9.20964 20.0373 9.02783 20.4209 8.88746C20.4509 8.87651 20.4809 8.86582 20.511 8.85539L20.475 8.82131L20.4782 8.8546L20.1986 8.55931L19.9037 8.27982L19.9369 8.28294L19.903 8.24708C19.8927 8.27684 19.8821 8.30653 19.8713 8.33614C19.7309 8.7203 19.549 9.08665 19.3296 9.42894ZM20.4288 8.32916L20.2073 5.96903C20.1523 5.38262 20.2794 4.79353 20.5712 4.28212C20.8631 3.77071 21.3055 3.36192 21.838 3.11142C22.3705 2.86092 22.9672 2.78088 23.5468 2.88217C24.1264 2.98347 24.6608 3.2612 25.0769 3.67755C25.4931 4.09392 25.7708 4.62865 25.8721 5.20884C25.9734 5.78903 25.8933 6.38635 25.6429 6.91931C25.3924 7.45226 24.9838 7.89486 24.4727 8.18679C23.9617 8.47872 23.3732 8.6058 22.7874 8.55077L20.4288 8.32916ZM5.80937 15.9163L5.87084 15.8545C6.16485 15.5586 6.38999 15.2014 6.53015 14.8084C6.67031 14.4153 6.72201 13.9962 6.68157 13.5808L6.45035 11.2062L4.10741 10.996C3.62927 10.9531 3.14802 11.0317 2.70825 11.2244C2.26848 11.4171 1.88439 11.7178 1.59161 12.0986M0.79881 11.4892L1.59161 12.0986C1.29883 12.4795 1.10684 12.9282 1.03348 13.4031C0.96012 13.878 1.00777 14.3638 1.17199 14.8153C1.33622 15.2669 1.61169 15.6696 1.97285 15.9863C2.334 16.3029 2.76914 16.5231 3.23793 16.6266C3.70672 16.7302 4.19404 16.7136 4.65476 16.5785C5.08679 16.4519 5.48235 16.2248 5.80937 15.9163M6.58121 16.5604C6.58085 16.5608 6.5805 16.5611 6.58015 16.5615C6.12288 17.0201 5.55746 17.356 4.9361 17.5381C4.9111 17.5455 4.88604 17.5525 4.86092 17.5594C4.26094 17.7221 3.63009 17.7373 3.0223 17.6031C2.38907 17.4633 1.80136 17.1658 1.31363 16.7382C0.825902 16.3106 0.453939 15.7668 0.23221 15.1571C0.0104804 14.5474 -0.0538415 13.8916 0.0452039 13.2504C0.144249 12.6092 0.403458 12.0034 0.79881 11.4892C1.19416 10.9749 1.71286 10.5688 2.30685 10.3085C2.49614 10.2255 2.69112 10.1582 2.88984 10.1069C3.30351 10.0001 3.7334 9.96251 4.16194 9.99705C4.16677 9.99743 4.17161 9.99783 4.17644 9.99824C4.18322 9.99881 4.19 9.9994 4.19677 10L4.17789 9.98111C4.1847 9.98168 4.19151 9.98224 4.19832 9.98279C4.20317 9.98318 4.20802 9.98356 4.21287 9.98393C4.64764 10.0173 5.08387 9.98797 5.50838 9.89778C5.71803 9.85324 5.92482 9.79385 6.12715 9.71982L6.47075 10.6589C6.42115 10.6771 6.37133 10.6945 6.3213 10.7112L6.85202 11.2423L6.75634 11.2337L6.94792 11.4153C6.9702 11.346 6.99386 11.2771 7.0189 11.2086C7.1588 10.826 7.33989 10.461 7.55825 10.1199C7.21751 10.3381 6.85297 10.5191 6.47075 10.6589L6.12715 9.71982C6.75017 9.49187 7.31596 9.13064 7.78503 8.66133C8.2541 8.19203 8.61516 7.62596 8.84299 7.00264C8.91697 6.80024 8.97633 6.59339 9.02085 6.38367C9.11102 5.95891 9.14032 5.52241 9.10698 5.08738C9.10661 5.08256 9.10623 5.07774 9.10584 5.07292C9.1053 5.06608 9.10474 5.05925 9.10416 5.05241L9.12305 5.07131C9.12242 5.06453 9.1218 5.05775 9.1212 5.05097C9.12078 5.04619 9.12036 5.0414 9.11996 5.03662C9.08351 4.60553 9.11992 4.17385 9.2254 3.7591C9.31063 3.42399 9.44096 3.09994 9.61437 2.79619C10.0082 2.10645 10.605 1.55502 11.3236 1.21711C12.0421 0.879191 12.8473 0.77124 13.6294 0.907974C14.4115 1.04471 15.1325 1.41947 15.6939 1.98116C16.2553 2.54285 16.6299 3.26412 16.7665 4.04661C16.9032 4.82909 16.7953 5.63471 16.4575 6.3536C16.1198 7.07248 15.5686 7.66965 14.8792 8.06364C14.5837 8.23252 14.269 8.36055 13.9436 8.44589C13.5209 8.55672 13.0802 8.59554 12.6401 8.55832C12.6356 8.55794 12.6311 8.55755 12.6266 8.55716C12.6195 8.55653 12.6124 8.55588 12.6052 8.55521L12.6252 8.57411C12.618 8.5735 12.6108 8.57291 12.6036 8.57233C12.5991 8.57197 12.5946 8.57161 12.59 8.57126C12.1453 8.53696 11.6991 8.56821 11.2654 8.66312C11.0656 8.70685 10.8684 8.76411 10.6752 8.83469C10.052 9.0625 9.48591 9.42369 9.0166 9.89303C8.54729 10.3624 8.18605 10.9286 7.95809 11.552C7.88085 11.7633 7.81954 11.9794 7.77441 12.1986C7.68882 12.6142 7.66142 13.0408 7.69384 13.466C7.69425 13.4714 7.69467 13.4768 7.6951 13.4821C7.69565 13.489 7.69622 13.4959 7.6968 13.5028L7.67686 13.4839C7.67752 13.4907 7.67817 13.4975 7.67879 13.5043C7.67928 13.5097 7.67976 13.515 7.68023 13.5203C7.71717 13.9412 7.68426 14.3646 7.58358 14.7733C7.55274 14.8985 7.51555 15.0223 7.47205 15.1443C7.4214 15.2863 7.36254 15.4249 7.29589 15.5594C7.11352 15.9273 6.87281 16.2644 6.58225 16.5572C6.5819 16.5576 6.58155 16.558 6.5812 16.5583C6.58085 16.5587 6.5805 16.559 6.58015 16.5594H6.58225C6.5819 16.5597 6.58155 16.5601 6.58121 16.5604ZM10.4218 7.8635C10.3918 7.8739 10.3618 7.88455 10.332 7.89546C9.94911 8.03539 9.58397 8.21659 9.2427 8.43513C9.46114 8.09388 9.64229 7.72876 9.78222 7.34594C9.80023 7.29665 9.81754 7.24714 9.83413 7.19743L9.93742 7.30078L9.81608 7.2894L10.4218 7.8635ZM10.3397 7.33848L10.1187 4.97808C10.0638 4.39193 10.191 3.80314 10.4828 3.29202C10.7746 2.7809 11.2169 2.37236 11.7492 2.12203C12.2814 1.87171 12.8779 1.79175 13.4572 1.89303C14.0365 1.99432 14.5706 2.27193 14.9866 2.68809C15.4026 3.10427 15.6802 3.63874 15.7814 4.21866C15.8827 4.79858 15.8028 5.39563 15.5525 5.92837C15.3022 6.4611 14.8938 6.90355 14.383 7.19543C13.8723 7.48731 13.2841 7.61446 12.6986 7.55958L10.3397 7.33848ZM74.68 21.5531C75.77 21.5531 76.8356 21.2295 77.7416 20.6231C78.6476 20.0167 79.3534 19.155 79.7695 18.147C80.1857 17.139 80.2934 16.0301 80.0792 14.9608C79.8649 13.8915 79.3382 12.9099 78.5659 12.1403C77.7936 11.3707 76.8103 10.8477 75.7407 10.6376C74.6711 10.4276 73.5632 10.5398 72.5574 10.9602C71.5516 11.3806 70.6931 12.0901 70.0907 12.999C69.4882 13.9079 69.169 14.9753 69.1734 16.0658C69.168 16.7898 69.307 17.5076 69.5821 18.1772C69.8572 18.8468 70.263 19.4548 70.7757 19.9657C71.2884 20.4766 71.8977 20.8801 72.5681 21.1527C73.2385 21.4253 73.9564 21.5614 74.68 21.5531ZM81.955 10.8683L81.9508 21.2633H85.073V10.8683H81.955ZM82.9546 11.8683L82.9512 20.2633H84.073V11.8683H82.9546ZM82.9672 9.86834C83.1416 9.9227 83.3244 9.95194 83.5103 9.95379C83.7009 9.95379 83.8892 9.92467 84.0691 9.86834C84.2384 9.8153 84.4002 9.73814 84.5494 9.63845C84.8569 9.43285 85.0966 9.14062 85.2382 8.79873C85.3797 8.45683 85.4167 8.08061 85.3446 7.71765C85.2724 7.3547 85.0943 7.0213 84.8328 6.75962C84.5712 6.49794 84.238 6.31974 83.8752 6.24754C83.5124 6.17534 83.1364 6.2124 82.7947 6.35402C82.4529 6.49564 82.1609 6.73546 81.9554 7.04316C81.7499 7.35086 81.6402 7.71262 81.6402 8.08269C81.6451 8.57741 81.8437 9.05048 82.1934 9.40031C82.4116 9.61863 82.6778 9.7781 82.9672 9.86834ZM82.6402 8.07756C82.6437 8.30894 82.7372 8.52982 82.9007 8.69338C83.0641 8.85689 83.2845 8.95018 83.5153 8.95377C83.6856 8.9528 83.8519 8.90184 83.9936 8.80711C84.1367 8.71144 84.2483 8.57543 84.3142 8.4162C84.3801 8.25697 84.3974 8.08173 84.3638 7.91265C84.3302 7.74359 84.2472 7.58835 84.1255 7.46655C84.0037 7.34476 83.8487 7.26188 83.68 7.22831C83.5113 7.19473 83.3364 7.21196 83.1775 7.27783C83.0186 7.3437 82.8826 7.45528 82.7869 7.59854C82.6922 7.74039 82.6412 7.90695 82.6402 8.07756ZM43.9722 16.0658C43.9668 16.7898 44.1058 17.5076 44.3809 18.1772C44.656 18.8468 45.0618 19.4548 45.5745 19.9657C46.0872 20.4766 46.6965 20.8801 47.3669 21.1527C48.0373 21.4253 48.7553 21.5614 49.4788 21.5531C50.5689 21.5531 51.6344 21.2295 52.5404 20.6231C53.4465 20.0167 54.1522 19.155 54.5684 18.147C54.9845 17.139 55.0923 16.0301 54.878 14.9608C54.6637 13.8915 54.1371 12.9099 53.3647 12.1403C52.5924 11.3707 51.6092 10.8477 50.5395 10.6376C49.4699 10.4276 48.362 10.5398 47.3562 10.9602C46.3504 11.3806 45.4919 12.0901 44.8895 12.999C44.2871 13.9079 43.9678 14.9753 43.9722 16.0658ZM64.3741 10.8663V11.9268C64.0939 11.5837 63.7549 11.2947 63.3741 11.0728C63.2589 11.0057 63.14 10.9448 63.0176 10.8903C62.4907 10.6556 61.9161 10.5477 61.34 10.5754C59.9692 10.6187 58.669 11.1939 57.7146 12.1793C56.7602 13.1648 56.2265 14.4831 56.2265 15.8553C56.2265 17.2275 56.7602 18.5459 57.7146 19.5313C58.1849 20.0169 58.7391 20.4029 59.3444 20.6747C59.7039 20.8361 60.0813 20.9573 60.4698 21.0351C60.7548 21.0922 61.0458 21.126 61.34 21.1353C61.9161 21.1629 62.4907 21.0551 63.0176 20.8204C63.14 20.7659 63.2589 20.7049 63.3741 20.6378C63.7549 20.4159 64.0939 20.127 64.3741 19.7839V20.7342C64.3864 20.882 64.3827 21.0303 64.3635 21.1764C64.3425 21.3363 64.3028 21.4936 64.2449 21.6452C64.1342 21.9353 63.9596 22.1968 63.7342 22.4104C63.5088 22.6239 63.2383 22.784 62.9427 22.8788C62.647 22.9736 62.3339 23.0007 62.0264 22.9581C61.5453 23.0072 61.0606 22.9081 60.6373 22.6741C60.3045 22.4902 60.0221 22.2297 59.8123 21.916C59.8093 21.9115 59.8063 21.907 59.8033 21.9024C59.7498 21.8212 59.7012 21.7365 59.6577 21.6487L56.9983 23.187C57.1751 23.4751 57.3781 23.7444 57.6041 23.9918C58.0306 24.4589 58.539 24.8481 59.1068 25.1387C59.9754 25.5832 60.9496 25.7798 61.9225 25.707C64.6858 25.707 67.4082 24.2307 67.4082 20.7384V10.8684L64.3741 10.8663ZM65.3741 11.8669L66.4082 11.8677V20.7384C66.4082 22.1924 65.8571 23.1387 65.084 23.7458C64.2775 24.379 63.1424 24.707 61.9225 24.707H61.8851L61.8478 24.7097C61.0581 24.7689 60.2674 24.6093 59.5623 24.2485C59.1674 24.0464 58.8079 23.7855 58.4952 23.4764L59.3816 22.9636C59.6081 23.1937 59.8677 23.3913 60.1535 23.5493C60.7205 23.8627 61.3649 24.0058 62.0096 23.9629C62.4267 24.004 62.8482 23.9593 63.248 23.831C63.6865 23.6904 64.0877 23.453 64.4219 23.1363C64.7562 22.8197 65.015 22.432 65.1792 22.0018C65.338 21.5858 65.4044 21.1405 65.3741 20.6967V16.979L65.0411 17.3866C65.0717 17.3235 65.1003 17.2594 65.1269 17.1943C65.2995 16.772 65.384 16.3191 65.3756 15.8633C65.3914 15.3639 65.3007 14.869 65.1119 14.4107L65.3741 14.7317V11.8669ZM63.8206 12.8299L63.5996 12.5594C63.3335 12.2336 62.9948 11.9748 62.6108 11.8038C62.2267 11.6327 61.8079 11.5541 61.388 11.5743L61.3798 11.5746L61.3716 11.5749C60.2605 11.61 59.2066 12.0762 58.4329 12.875C57.6592 13.6739 57.2265 14.7427 57.2265 15.8553C57.2265 16.9679 57.6592 18.0367 58.4329 18.8356C59.2066 19.6345 60.2605 20.1007 61.3716 20.1358L61.3798 20.136L61.388 20.1364C61.8079 20.1566 62.2267 20.078 62.6108 19.9069C62.9948 19.7358 63.3335 19.4771 63.5996 19.1513L64.0574 18.5909C63.7877 18.7967 63.4877 18.9608 63.1673 19.0769C62.7385 19.2324 62.2826 19.2987 61.8275 19.2718C61.1374 19.2657 60.464 19.0567 59.8913 18.6704C59.309 18.2776 58.8575 17.7194 58.5949 17.0678C58.3324 16.4162 58.2708 15.7009 58.418 15.014C58.5652 14.3271 58.9145 13.6999 59.4211 13.2132C59.9277 12.7265 60.5683 12.4025 61.2606 12.2831C61.9528 12.1637 62.6649 12.2543 63.3053 12.5432C63.4856 12.6245 63.6579 12.7206 63.8206 12.8299ZM61.8616 18.2719C62.1891 18.2948 62.5178 18.2488 62.8264 18.1368C63.1351 18.0249 63.4169 17.8495 63.6536 17.622C63.8904 17.3945 64.077 17.1199 64.2012 16.8159C64.3255 16.5119 64.3847 16.1852 64.3752 15.8569C64.3961 15.3543 64.2662 14.857 64.0023 14.4289C63.7383 14.0008 63.3523 13.6615 62.894 13.4547C62.4357 13.2479 61.926 13.1831 61.4306 13.2686C60.9351 13.354 60.4766 13.5859 60.1139 13.9343C59.7513 14.2827 59.5012 14.7317 59.3958 15.2236C59.2904 15.7154 59.3345 16.2276 59.5225 16.6941C59.7105 17.1606 60.0337 17.5602 60.4506 17.8414C60.8674 18.1226 61.3589 18.2725 61.8616 18.2719ZM44.9722 16.0732C44.9678 16.6644 45.0812 17.2504 45.3059 17.7971C45.5305 18.3439 45.8618 18.8403 46.2803 19.2574C46.6989 19.6744 47.1963 20.0039 47.7436 20.2263C48.2908 20.4488 48.8768 20.5599 49.4674 20.5532L49.4788 20.5531C50.3708 20.5531 51.2428 20.2883 51.9842 19.792C52.7257 19.2958 53.3034 18.5905 53.644 17.7654C53.9847 16.9403 54.0729 16.0326 53.8975 15.1573C53.7221 14.282 53.291 13.4785 52.6589 12.8486C52.0268 12.2188 51.2221 11.7908 50.3468 11.6189C49.4715 11.447 48.5649 11.5388 47.7418 11.8828C46.9187 12.2268 46.2161 12.8076 45.723 13.5515C45.2299 14.2954 44.9686 15.1691 44.9722 16.0618L44.9722 16.0732ZM70.1733 16.0732C70.169 16.6644 70.2824 17.2504 70.507 17.7971C70.7317 18.3439 71.063 18.8403 71.4815 19.2574C71.9001 19.6744 72.3975 20.0039 72.9447 20.2263C73.4919 20.4488 74.078 20.5599 74.6686 20.5532L74.68 20.5531C75.572 20.5531 76.4439 20.2883 77.1854 19.792C77.9269 19.2958 78.5046 18.5905 78.8452 17.7654C79.1858 16.9403 79.274 16.0326 79.0987 15.1573C78.9233 14.282 78.4922 13.4785 77.8601 12.8486C77.228 12.2188 76.4233 11.7908 75.548 11.6189C74.6727 11.447 73.7661 11.5388 72.943 11.8828C72.1199 12.2268 71.4173 12.8076 70.9242 13.5515C70.4311 14.2954 70.1698 15.1691 70.1733 16.0618L70.1733 16.0732ZM97.5303 16.0656L97.5331 16.0131C97.5624 15.4576 97.4817 14.9017 97.2955 14.3776C97.1093 13.8534 96.8214 13.3713 96.4483 12.959C96.0752 12.5467 95.6243 12.2122 95.1216 11.975C94.6188 11.7377 94.0742 11.6023 93.519 11.5764L93.511 11.576C93.0816 11.5526 92.6524 11.625 92.2544 11.7879C91.8564 11.9509 91.4995 12.2004 91.2097 12.5184L89.4706 14.4266V11.8683H88.3536V24.4203H89.4706V17.7007L91.2101 19.6116C91.4997 19.9297 91.8565 20.1794 92.2544 20.3425C92.6524 20.5056 93.0816 20.5781 93.511 20.5546L93.5188 20.5542C94.0739 20.5282 94.6184 20.3927 95.1211 20.1555C95.6237 19.9182 96.0745 19.5839 96.4476 19.1716C96.8207 18.7594 97.1087 18.2774 97.295 17.7534C97.4812 17.2293 97.5622 16.6736 97.533 16.1182L97.5303 16.0656ZM91.4706 11.0562C91.0972 11.262 90.7592 11.5282 90.4706 11.8448V10.8683H87.3536V25.4203H90.4706V20.2847C90.7591 20.6017 91.0971 20.8681 91.4706 21.0741C91.6013 21.1462 91.7364 21.2109 91.8752 21.2678C92.4105 21.4872 92.9879 21.5847 93.5655 21.5531C94.2524 21.521 94.9261 21.3533 95.548 21.0598C96.1698 20.7662 96.7275 20.3526 97.1891 19.8427C97.6506 19.3327 98.0068 18.7365 98.2372 18.0883C98.4676 17.4402 98.5677 16.7528 98.5317 16.0658C98.568 15.3787 98.4681 14.6912 98.2378 14.0429C98.0075 13.3945 97.6513 12.7981 97.1898 12.288C96.7282 11.7779 96.1704 11.3642 95.5484 11.0706C94.9264 10.7771 94.2525 10.6095 93.5655 10.5775C92.988 10.546 92.4107 10.6433 91.8754 10.8625C91.7365 10.9194 91.6014 10.9841 91.4706 11.0562ZM99.3618 19.0794C99.3618 19.0793 99.3618 19.0794 99.3618 19.0794C99.4286 19.2111 99.5016 19.3391 99.5803 19.463C99.6811 19.6215 99.7914 19.7734 99.9105 19.9177C100.272 20.3557 100.714 20.7246 101.216 21.0025C102.012 21.4435 102.923 21.6353 103.829 21.5532C106.073 21.5532 108.15 20.5347 108.15 18.1438C108.15 16.3263 107.009 15.5442 105.804 15.0997C105.788 15.0938 105.772 15.0879 105.756 15.0822C105.337 14.9307 104.912 14.819 104.526 14.7176C104.485 14.7068 104.445 14.6961 104.405 14.6855C103.626 14.4799 103.036 14.3052 103.035 13.9029C103.035 13.5312 103.368 13.3212 103.908 13.3212C104.204 13.3201 104.494 13.4062 104.742 13.5689C104.849 13.6393 104.946 13.7226 105.031 13.8166C105.082 13.8731 105.129 13.9334 105.171 13.997C105.221 14.0722 105.264 14.1521 105.3 14.2357L107.959 12.8014C107.786 12.5092 107.581 12.2386 107.349 11.994C107.027 11.6535 106.652 11.3634 106.237 11.1357C105.525 10.7446 104.72 10.5518 103.908 10.5775C101.747 10.5775 99.8351 11.7199 99.8351 13.9869C99.8351 15.41 100.636 16.1754 101.603 16.6517C102.052 16.8727 102.537 17.0314 102.994 17.1647C103.144 17.2083 103.29 17.2492 103.432 17.2887C104.282 17.5257 104.947 17.7111 104.947 18.1239C104.947 18.5386 104.572 18.7675 103.825 18.7675C103.435 18.7958 103.048 18.6895 102.727 18.4663C102.628 18.3974 102.537 18.3186 102.455 18.2316C102.385 18.156 102.321 18.0741 102.265 17.9871C102.177 17.8499 102.108 17.6999 102.062 17.5411L99.3618 19.0794ZM101.706 18.8946L100.796 19.4131C101.055 19.6974 101.36 19.9393 101.7 20.1276C102.322 20.4717 103.032 20.6213 103.739 20.5572L103.784 20.5532H103.829C104.82 20.5532 105.681 20.3253 106.262 19.9228C106.8 19.5505 107.15 19.0014 107.15 18.1438C107.15 17.433 106.926 17.0175 106.64 16.7279C106.322 16.4063 105.857 16.1695 105.274 15.9731C104.989 15.8767 104.697 15.7969 104.4 15.7184C104.359 15.7077 104.318 15.6968 104.277 15.6859C104.028 15.6205 103.764 15.5514 103.533 15.4777C103.274 15.3954 102.95 15.2767 102.678 15.0835C102.379 14.8718 102.037 14.4877 102.035 13.9064L102.035 13.9029C102.035 13.3673 102.299 12.9134 102.72 12.6367C103.093 12.3917 103.528 12.3214 103.906 12.3212C104.398 12.3197 104.88 12.463 105.291 12.7332C105.391 12.7991 105.486 12.8719 105.575 12.9509L106.428 12.4909C106.224 12.3065 105.999 12.1457 105.756 12.0123C105.2 11.7073 104.573 11.557 103.94 11.577L103.924 11.5775H103.908C102.99 11.5775 102.2 11.8222 101.667 12.228C101.163 12.6111 100.835 13.171 100.835 13.9869C100.835 14.6139 101.044 14.9929 101.332 15.2733C101.654 15.5873 102.128 15.8259 102.718 16.0296C103.006 16.1294 103.301 16.2137 103.599 16.2971C103.632 16.3064 103.666 16.3158 103.7 16.3253C103.957 16.3969 104.228 16.4722 104.466 16.5521C104.724 16.6385 105.042 16.7607 105.309 16.9518C105.595 17.1562 105.947 17.5375 105.947 18.1239C105.947 18.7008 105.652 19.1839 105.17 19.4651C104.77 19.6981 104.296 19.7642 103.86 19.7674C103.254 19.8028 102.654 19.6339 102.156 19.2872C101.991 19.1726 101.84 19.0407 101.706 18.8946ZM103.906 12.3212C103.907 12.3212 103.908 12.3212 103.908 12.3212V13.3201L103.905 12.3212C103.905 12.3212 103.906 12.3212 103.906 12.3212ZM115.419 21.1145C115.8 20.9027 116.139 20.622 116.419 20.2858V21.2634H119.536V10.8684L116.422 10.8715V16.5415C116.422 18.0178 115.633 18.6825 114.49 18.6825C114.242 18.6976 113.993 18.6583 113.761 18.5675C113.53 18.4767 113.321 18.3365 113.149 18.1566C112.977 17.9767 112.846 17.7615 112.765 17.5259C112.685 17.2903 112.657 17.04 112.683 16.7925V10.8684H109.566V17.2492C109.566 20.058 111.35 21.5542 113.449 21.5542C114.009 21.5928 114.57 21.498 115.087 21.2775C115.2 21.2289 115.311 21.1745 115.419 21.1145ZM110.566 11.8684V17.2492C110.566 18.4359 110.938 19.2468 111.436 19.7562C111.937 20.269 112.64 20.5542 113.449 20.5542H113.483L113.518 20.5566C113.92 20.5843 114.323 20.5162 114.694 20.3579C115.065 20.1995 115.393 19.9554 115.651 19.6456L115.862 19.3926C115.442 19.5928 114.979 19.6789 114.519 19.6824C114.136 19.7012 113.754 19.6386 113.396 19.4985C113.029 19.3547 112.698 19.1326 112.426 18.8477C112.153 18.5628 111.946 18.222 111.819 17.849C111.698 17.4944 111.652 17.1189 111.683 16.746V11.8684H110.566ZM117.263 17.7119L117.419 17.5242V20.2634H118.536V11.8694L117.422 11.8705V16.5415C117.422 16.9548 117.372 17.3491 117.263 17.7119ZM121.825 10.8674V21.2624H124.942V15.4002C124.942 14.1738 125.523 13.4462 126.562 13.4462C127.56 13.4462 128.059 14.1108 128.059 15.1503V21.2624H131.175V15.4002C131.175 14.1738 131.757 13.4462 132.796 13.4462C133.793 13.4462 134.292 14.1108 134.292 15.1503V21.2624H137.409V14.8805C137.409 12.2817 135.846 10.5776 133.461 10.5765C132.883 10.5316 132.304 10.6338 131.777 10.8736C131.561 10.972 131.357 11.0923 131.167 11.2321C130.894 11.4329 130.651 11.6738 130.448 11.9478C130.258 11.6641 130.024 11.4148 129.755 11.2091C129.603 11.0927 129.44 10.9902 129.268 10.9033C128.791 10.663 128.26 10.5504 127.726 10.5765C127.195 10.535 126.662 10.6274 126.176 10.8451C126.096 10.8807 126.018 10.9195 125.942 10.9613C125.553 11.1751 125.212 11.4683 124.942 11.8229V10.8674H121.825ZM123.942 11.8674H122.825V20.2624H123.942V15.4002C123.942 15.169 123.959 14.939 123.995 14.7148L123.942 14.7845V11.8674ZM125.598 12.6113C125.899 12.5002 126.225 12.4462 126.562 12.4462C127.298 12.4462 127.976 12.7016 128.45 13.2642C128.901 13.7999 129.059 14.4861 129.059 15.1503V20.2624H130.175V15.4002C130.175 14.6437 130.353 13.9005 130.823 13.3284C131.317 12.728 132.025 12.4462 132.796 12.4462C133.532 12.4462 134.209 12.7019 134.683 13.2644C135.134 13.8 135.292 14.4861 135.292 15.1503V20.2624H136.409V14.8805C136.409 13.7798 136.08 12.962 135.592 12.4303C135.112 11.9069 134.403 11.5769 133.46 11.5765L133.422 11.5765L133.383 11.5735C132.975 11.5417 132.565 11.614 132.192 11.7838C131.819 11.9535 131.495 12.2151 131.25 12.5442L130.404 13.6834L129.616 12.503C129.415 12.2023 129.14 11.9589 128.818 11.7963C128.495 11.6338 128.136 11.5577 127.775 11.5753L127.712 11.5784L127.648 11.5735C127.284 11.545 126.918 11.6084 126.584 11.7578C126.25 11.9072 125.959 12.138 125.737 12.429L125.598 12.6113ZM41.2069 7.08663H40.09V20.2623H41.2069V7.08663ZM52.8677 16.0248C52.8468 15.363 52.6327 14.7217 52.2517 14.18C51.8681 13.6347 51.3322 13.2145 50.7111 12.9721C50.09 12.7297 49.4112 12.6758 48.7596 12.8172C48.1081 12.9587 47.5127 13.2891 47.0479 13.7672C46.5832 14.2453 46.2696 14.8497 46.1464 15.505C46.0232 16.1603 46.0958 16.8374 46.3551 17.4516C46.6144 18.0659 47.049 18.5901 47.6046 18.9587C48.1565 19.3249 48.8034 19.5213 49.4655 19.5239C49.9211 19.5342 50.374 19.4509 50.7961 19.2792C51.2224 19.1057 51.6081 18.8457 51.9289 18.5157C52.2498 18.1857 52.4987 17.7928 52.6602 17.3618C52.8201 16.935 52.8907 16.4799 52.8677 16.0248ZM49.4788 18.5239C49.0088 18.5239 48.5492 18.3853 48.1575 18.1254C47.7657 17.8655 47.4593 17.4959 47.2764 17.0627C47.0935 16.6295 47.0423 16.152 47.1292 15.6898C47.2161 15.2276 47.4372 14.8014 47.7649 14.4643C48.0927 14.1272 48.5124 13.8942 48.9718 13.7945C49.4311 13.6948 49.9096 13.7327 50.3475 13.9036C50.7854 14.0746 51.1632 14.3708 51.4338 14.7554C51.7043 15.1399 51.8555 15.5958 51.8685 16.0658C51.886 16.3875 51.8367 16.7094 51.7237 17.0111C51.6107 17.3127 51.4365 17.5877 51.2119 17.8187C50.9874 18.0496 50.7175 18.2315 50.4192 18.3529C50.1209 18.4743 49.8007 18.5325 49.4788 18.5239ZM78.0689 16.025C78.048 15.3632 77.8339 14.7218 77.4529 14.18C77.0692 13.6347 76.5334 13.2145 75.9123 12.9721C75.2912 12.7297 74.6124 12.6758 73.9608 12.8172C73.3092 12.9587 72.7139 13.2891 72.2491 13.7672C71.7843 14.2453 71.4708 14.8497 71.3476 15.505C71.2244 16.1603 71.2969 16.8374 71.5563 17.4516C71.8156 18.0659 72.2502 18.5901 72.8058 18.9587C73.3577 19.3249 74.0046 19.5213 74.6667 19.5239C75.1222 19.5342 75.5751 19.4509 75.9973 19.2792C76.4236 19.1057 76.8093 18.8457 77.1301 18.5157C77.4509 18.1857 77.6999 17.7928 77.8613 17.3618C78.0212 16.9351 78.0918 16.48 78.0689 16.025ZM74.68 18.5239C74.21 18.5239 73.7504 18.3853 73.3586 18.1254C72.9669 17.8655 72.6604 17.4959 72.4775 17.0627C72.2946 16.6295 72.2435 16.152 72.3303 15.6898C72.4172 15.2276 72.6384 14.8014 72.9661 14.4643C73.2938 14.1272 73.7136 13.8942 74.1729 13.7945C74.6323 13.6948 75.1108 13.7327 75.5487 13.9036C75.9866 14.0746 76.3644 14.3708 76.6349 14.7554C76.9055 15.1399 77.0567 15.5958 77.0697 16.0658C77.0872 16.3875 77.0379 16.7094 76.9249 17.0111C76.8119 17.3127 76.6376 17.5877 76.4131 17.8187C76.1886 18.0496 75.9187 18.2315 75.6204 18.3529C75.3221 18.4743 75.0019 18.5325 74.68 18.5239ZM96.4138 16.0201C96.3929 15.3444 96.1752 14.6892 95.7874 14.1352C95.3955 13.5754 94.8474 13.1437 94.2114 12.894C93.5754 12.6444 92.8799 12.5879 92.212 12.7318C91.544 12.8757 90.9334 13.2134 90.4565 13.7027C89.9796 14.192 89.6577 14.8111 89.5308 15.4824C89.4039 16.1538 89.4777 16.8477 89.7431 17.4773C90.0084 18.1069 90.4536 18.6444 91.0228 19.0222C91.5858 19.396 92.2455 19.5973 92.921 19.6015C93.3883 19.6192 93.8543 19.5395 94.2893 19.3673C94.7312 19.1924 95.1311 18.926 95.4628 18.5856C95.7946 18.2453 96.0506 17.8386 96.2142 17.3924C96.3751 16.9537 96.443 16.4863 96.4138 16.0201ZM92.9432 18.6016C92.4568 18.6016 91.9811 18.4582 91.5758 18.1891C91.1705 17.92 90.8536 17.5373 90.6646 17.0889C90.4756 16.6405 90.423 16.1463 90.5134 15.6681C90.6037 15.19 90.8331 14.7491 91.1727 14.4007C91.5122 14.0523 91.947 13.8118 92.4225 13.7094C92.898 13.607 93.3932 13.6471 93.846 13.8249C94.2988 14.0026 94.6891 14.31 94.9682 14.7086C95.2472 15.1072 95.4025 15.5793 95.4147 16.0658C95.438 16.3994 95.3905 16.7342 95.2753 17.0482C95.1602 17.3621 94.9801 17.6482 94.7467 17.8877C94.5133 18.1271 94.232 18.3145 93.9212 18.4375C93.6104 18.5605 93.2771 18.6164 92.9432 18.6016ZM140.045 9.80433C140.77 9.80433 141.358 9.21639 141.358 8.49013C141.358 7.76386 140.77 7.17593 140.045 7.17593C139.32 7.17593 138.732 7.76385 138.732 8.49013C138.732 9.21641 139.32 9.80433 140.045 9.80433ZM42.2069 6.08663V21.2623H39.09V6.08663H42.2069ZM142.358 8.49013C142.358 9.76822 141.323 10.8043 140.045 10.8043C138.768 10.8043 137.732 9.76822 137.732 8.49013C137.732 7.21203 138.768 6.17593 140.045 6.17593C141.323 6.17593 142.358 7.21203 142.358 8.49013Z" fill="#1D2130"/>
</svg>
